<?xml version="1.0" encoding="utf-8"?>
<!-- Generator: Adobe Illustrator 21.0.0, SVG Export Plug-In . SVG Version: 6.00 Build 0)  -->
<svg version="1.1" id="Layer_1" xmlns="http://www.w3.org/2000/svg" xmlns:xlink="http://www.w3.org/1999/xlink" x="0px" y="0px"
	 viewBox="0 0 110 110" style="enable-background:new 0 0 110 110;" xml:space="preserve">
<style type="text/css">
	.st0{display:none;}
	.st1{display:inline;}
</style>
<title>magnifier</title>
<desc>Created with Sketch.</desc>
<path class="st0" d="M102.7,62c-0.2-1.6-0.7-5-4.5-8.2c-0.7-3.5-3.7-7.4-5.7-9.6c0.3,0,0.7,0,1.1,0.1c1.1,0.1,4.9-0.1,6.7-0.6
	c1.8-0.5,2-5,1-5.6c-1-0.6-5.5-0.7-6.7-0.6c-1.2,0.1-1.3,1-1.5,1.2C93,38.9,93,41.2,93,41.2c0,0.7-1.4,0.1-2.1,0c0,0,0,0,0,0
	c-1.7-5.3-5.3-15.3-9.5-17.1c-5.2-2.1-47.4-2.1-52.6,0c-4.2,1.7-7.8,11.8-9.5,17.1c0,0,0,0,0,0c-0.8,0.1-2.2,0.7-2.2,0
	c0,0,0-2.3-0.2-2.6c-0.2-0.2-0.3-1.1-1.5-1.2c-1.2-0.1-5.8,0-6.7,0.6c-1,0.6-0.8,5.1,1,5.6c1.8,0.5,5.6,0.7,6.7,0.6
	c0.4,0,0.8,0,1.1-0.1c-1.9,2.2-4.9,6.2-5.7,9.6C8,56.9,7.5,60.4,7.4,62c-0.3,2.5-0.9,14.1,1.5,18c0.2,0.4,0.9,0.7,2,1v11.8
	c0,0.8,0.5,1.4,1.2,1.4h11.8c0.7,0,1.2-0.6,1.2-1.4v-10c12.2,0.8,27.3,0.8,29.9,0.8c2.7,0,17.7,0,29.9-0.8v10c0,0.8,0.5,1.4,1.2,1.4
	H98c0.7,0,1.2-0.6,1.2-1.4V81c1-0.3,1.7-0.7,2-1C103.6,76.1,103,64.4,102.7,62z M29.3,27c3.1-0.2,10.4-0.6,26-0.6
	c15.4,0,22.6,0.4,25.6,0.6c2.5,1.9,5.7,9.6,7.6,15.7c-7.9,0.3-32.8,0.5-33.4,0.5c-0.6,0-25.4-0.1-33.4-0.5
	C23.6,36.6,26.7,28.9,29.3,27z M70.5,69.6c0,0.7-0.5,1.2-1.2,1.2H40.8c-0.7,0-1.2-0.5-1.2-1.2v-5.9c0-0.7,0.5-1.2,1.2-1.2h28.5
	c0.7,0,1.2,0.5,1.2,1.2V69.6z M89.4,72.4c-3.3,0-5.9-2.7-5.9-5.9c0-3.3,2.7-6,5.9-6c3.3,0,6,2.7,6,6C95.3,69.7,92.7,72.4,89.4,72.4z
	 M21.6,72.4c-3.3,0-5.9-2.7-5.9-5.9c0-3.3,2.7-6,5.9-6c3.3,0,6,2.7,6,6C27.6,69.7,24.9,72.4,21.6,72.4z"/>
<g class="st0">
	<path class="st1" d="M52.8,83.5h7.5c0.5,0,0.7-0.2,0.7-0.6v-5c2.8-0.9,5.1-2.4,6.9-4.7c2-2.5,3-5.2,3-8.2c0-2-0.4-3.9-1.2-5.6
		c-0.8-1.7-1.9-3.1-3.5-4.3c-1.3-1-2.6-1.8-4.1-2.4c-1.5-0.6-2.9-1.1-4.3-1.4c-1.2-0.3-2.2-0.6-2.9-0.9c-0.7-0.3-1.2-0.6-1.6-0.8
		c-0.3-0.2-0.6-0.5-0.7-0.7c-0.1-0.2-0.1-0.4-0.1-0.5c0.1-0.2,0.5-0.5,1.2-0.9s1.6-0.6,2.8-0.6c0.8,0,1.5,0.2,2.3,0.5
		c0.8,0.4,1.3,0.9,1.5,1.6c0.1,0.3,0.3,0.5,0.6,0.5c0.1,0,0.2,0,0.2-0.1l8.7-2.8c0.4-0.1,0.5-0.4,0.4-0.8c-0.7-2.1-1.8-3.9-3.5-5.5
		c-1.7-1.6-3.6-2.7-5.9-3.3v-5c0-0.2-0.1-0.4-0.2-0.5c-0.1-0.1-0.3-0.2-0.5-0.2h-7.5c-0.2,0-0.3,0.1-0.5,0.2
		c-0.1,0.1-0.2,0.3-0.2,0.5v4.9c-1.9,0.5-3.6,1.3-5.1,2.4s-2.7,2.4-3.6,4c-0.8,1.5-1.3,3.1-1.3,4.9c0,3.9,1.6,7.1,4.8,9.5
		c1,0.8,2.2,1.4,3.5,2s2.9,1.1,4.7,1.6c2.4,0.6,4,1.3,4.8,2c0.2,0.2,0.4,0.5,0.4,0.7c0,0.2,0.1,0.5,0.1,0.9c0,0.7-0.4,1.4-1.1,2.1
		c-0.7,0.7-1.7,1-2.8,1c-1,0-2-0.3-2.7-0.8c-0.8-0.5-1.2-1.2-1.2-2c0-0.2-0.1-0.3-0.2-0.5c-0.1-0.1-0.3-0.2-0.5-0.2h-9.1
		c-0.5,0-0.7,0.2-0.7,0.6c0,1.4,0.2,2.8,0.7,4.1c0.5,1.3,1.2,2.5,2,3.6c0.9,1.1,1.9,2.1,3.1,2.9c1.2,0.8,2.6,1.5,4.1,1.9v4.9
		C52.2,83.3,52.4,83.5,52.8,83.5z M56.6,21.3c10.9,0,20.9,4.9,27.1,13.5l-7.4,2.1l18.2,17.5l6.1-24.5l-8.1,2.3
		c-7.7-12.3-21.2-19.7-35.9-19.7c-23.3,0-42.3,18.3-42.3,42.7H23C23,36,38.1,21.3,56.6,21.3z M56.6,93.8c-10.9,0-21-5.4-27.3-14.2
		l7.5-2.2L18.7,60l-6.1,24.5l7.9-2.3c7.7,12.5,21.2,20.3,36.1,20.3c23.3,0,42.3-19.4,42.3-42.1h-8.7C90.2,77.9,75.1,93.8,56.6,93.8z
		"/>
</g>
<g>
	<g>
		<path d="M53.1,17.4H29.2v20.9h23.9V17.4z M50.1,35.4H32.2V20.4h17.9V35.4z"/>
		<path d="M59.1,38.3H83V17.4H59.1V38.3z M62.1,20.4H80v14.9H62.1V20.4z"/>
		<path d="M29.2,65.2H83V44.3H29.2V65.2z M32.2,47.3H80v14.9H32.2V47.3z"/>
		<path d="M29.2,92.1H83V71.2H29.2V92.1z M32.2,74.1H80v14.9H32.2V74.1z"/>
		<path d="M98.6,82.1l-3.4-2.6V30l3.4-2.6V7H13.6v20.4l3.4,2.6v49.4l-3.4,2.6v20.4h85.1V82.1z M95.6,99.5H16.6v-16l2.2-1.7l1.1-0.9
			v-1.5V30v-1.5l-1.1-0.9L16.6,26V10h79.1v16l-2.2,1.7l-1.1,0.9V30v49.4v1.5l1.1,0.9l2.2,1.7V99.5z"/>
	</g>
</g>
</svg>
