<svg xmlns="http://www.w3.org/2000/svg" xmlns:xlink="http://www.w3.org/1999/xlink" viewBox="0 0 110 110" version="1.1" x="0px" y="0px"><title>magnifier</title><desc>Created with Sketch.</desc><g stroke="none" stroke-width="1" fill="none" fill-rule="evenodd"><g fill="#000000"><path d="M27.5131154,68.3293978 C24.2973822,62.5896611 22.4657913,55.9815963 22.4657913,48.9491187 C22.4657913,26.8858297 40.493988,9 62.7328956,9 C84.9718033,9 103,26.8858297 103,48.9491187 C103,71.0124077 84.9718033,88.8982374 62.7328956,88.8982374 C54.4267556,88.8982374 46.7080062,86.4031792 40.2965711,82.1273012 L23.1478032,99.276069 C19.4809968,102.942875 13.53405,102.940996 9.8631232,99.2700695 C6.19300339,95.5999497 6.19733567,89.6451775 9.85712368,85.9853895 L27.5131154,68.3293978 L27.5131154,68.3293978 Z M62.7328956,75.7642806 C77.6603816,75.7642806 89.7614999,63.7587237 89.7614999,48.9491187 C89.7614999,34.1395137 77.6603816,22.1339568 62.7328956,22.1339568 C47.8054097,22.1339568 35.7042913,34.1395137 35.7042913,48.9491187 C35.7042913,63.7587237 47.8054097,75.7642806 62.7328956,75.7642806 L62.7328956,75.7642806 Z"></path></g></g></svg>