<?xml version="1.0" encoding="utf-8"?>
<!-- Generator: Adobe Illustrator 21.0.0, SVG Export Plug-In . SVG Version: 6.00 Build 0)  -->
<svg version="1.1" id="Layer_1" xmlns="http://www.w3.org/2000/svg" xmlns:xlink="http://www.w3.org/1999/xlink" x="0px" y="0px"
	 viewBox="0 0 110 110" style="enable-background:new 0 0 110 110;" xml:space="preserve">
<title>magnifier</title>
<desc>Created with Sketch.</desc>
<path d="M102.7,62c-0.2-1.6-0.7-5-4.5-8.2c-0.7-3.5-3.7-7.4-5.7-9.6c0.3,0,0.7,0,1.1,0.1c1.1,0.1,4.9-0.1,6.7-0.6c1.8-0.5,2-5,1-5.6
	c-1-0.6-5.5-0.7-6.7-0.6c-1.2,0.1-1.3,1-1.5,1.2C93,38.9,93,41.2,93,41.2c0,0.7-1.4,0.1-2.1,0c0,0,0,0,0,0
	c-1.7-5.3-5.3-15.3-9.5-17.1c-5.2-2.1-47.4-2.1-52.6,0c-4.2,1.7-7.8,11.8-9.5,17.1c0,0,0,0,0,0c-0.8,0.1-2.2,0.7-2.2,0
	c0,0,0-2.3-0.2-2.6c-0.2-0.2-0.3-1.1-1.5-1.2c-1.2-0.1-5.8,0-6.7,0.6c-1,0.6-0.8,5.1,1,5.6c1.8,0.5,5.6,0.7,6.7,0.6
	c0.4,0,0.8,0,1.1-0.1c-1.9,2.2-4.9,6.2-5.7,9.6C8,56.9,7.5,60.4,7.4,62c-0.3,2.5-0.9,14.1,1.5,18c0.2,0.4,0.9,0.7,2,1v11.8
	c0,0.8,0.5,1.4,1.2,1.4h11.8c0.7,0,1.2-0.6,1.2-1.4v-10c12.2,0.8,27.3,0.8,29.9,0.8c2.7,0,17.7,0,29.9-0.8v10c0,0.8,0.5,1.4,1.2,1.4
	H98c0.7,0,1.2-0.6,1.2-1.4V81c1-0.3,1.7-0.7,2-1C103.6,76.1,103,64.4,102.7,62z M29.3,27c3.1-0.2,10.4-0.6,26-0.6
	c15.4,0,22.6,0.4,25.6,0.6c2.5,1.9,5.7,9.6,7.6,15.7c-7.9,0.3-32.8,0.5-33.4,0.5c-0.6,0-25.4-0.1-33.4-0.5
	C23.6,36.6,26.7,28.9,29.3,27z M70.5,69.6c0,0.7-0.5,1.2-1.2,1.2H40.8c-0.7,0-1.2-0.5-1.2-1.2v-5.9c0-0.7,0.5-1.2,1.2-1.2h28.5
	c0.7,0,1.2,0.5,1.2,1.2V69.6z M89.4,72.4c-3.3,0-5.9-2.7-5.9-5.9c0-3.3,2.7-6,5.9-6c3.3,0,6,2.7,6,6C95.3,69.7,92.7,72.4,89.4,72.4z
	 M21.6,72.4c-3.3,0-5.9-2.7-5.9-5.9c0-3.3,2.7-6,5.9-6c3.3,0,6,2.7,6,6C27.6,69.7,24.9,72.4,21.6,72.4z"/>
</svg>
